# This file uses centimeters as units for non-parametric coordinates.

v 1.333179 -2.500955 3.803298
v 1.296657 -2.458207 3.780711
v 1.263391 -2.500999 3.753615
v 1.299913 -2.543686 3.776081
v 7.278612 -1.822862 -4.545163
v 7.242060 -1.780188 -4.567513
v 7.208916 -1.822966 -4.594739
v 7.245347 -1.865762 -4.572145
v -1.342915 -2.500955 3.801711
v -7.278552 -1.822862 -4.553708
v -7.242121 -1.780188 -4.576058
v -1.306362 -2.458207 3.779246
v -7.208734 -1.822966 -4.603284
v -1.273066 -2.500999 3.752028
v -7.245408 -1.865762 -4.580689
v -1.309649 -2.543686 3.774616
v 0.054853 2.011457 5.594522
v 0.017361 2.048892 5.596102
v -0.020130 2.011457 5.594461
v 0.017363 1.974022 5.592820
v 0.061377 2.506373 -5.594462
v 0.023886 2.543796 -5.592699
v -0.013605 2.506373 -5.594462
v 0.023888 2.468707 -5.596226
vt 0.114003 0.970501
vt 0.114003 0.759764
vt 0.115247 0.759764
vt 0.115247 0.970501
vt 0.400852 0.987945
vt 0.400852 0.777208
vt 0.402095 0.777208
vt 0.402095 0.987945
vt 0.403338 0.777209
vt 0.403338 0.987945
vt 0.133175 0.747878
vt 0.133175 0.958615
vt 0.131931 0.958615
vt 0.131932 0.747878
vt 0.402095 0.989189
vt 0.400852 0.989189
vt 0.133175 0.959858
vt 0.131932 0.959858
vt 0.124211 0.965469
vt 0.122967 0.965469
vt 0.122967 0.754732
vt 0.124211 0.754732
vt 0.965585 0.735623
vt 0.966828 0.735623
vt 0.966828 0.946360
vt 0.965585 0.946360
vt 0.968071 0.735623
vt 0.968071 0.946360
vt 0.140895 0.776444
vt 0.142139 0.776444
vt 0.142139 0.987181
vt 0.140895 0.987180
vt 0.122967 0.966712
vt 0.124211 0.966712
vt 0.966828 0.947603
vt 0.965585 0.947604
vt 0.998047 0.367785
vt 0.998047 0.597570
vt 0.996959 0.597570
vt 0.996959 0.367785
vt 0.974549 0.965408
vt 0.974549 0.735623
vt 0.975637 0.735623
vt 0.975637 0.965408
vt 0.976724 0.735624
vt 0.976724 0.965408
vt 0.998047 0.602174
vt 0.998047 0.831958
vt 0.996959 0.831958
vt 0.996959 0.602174
vt 0.975637 0.966496
vt 0.974549 0.966496
vt 0.996959 0.598658
vt 0.998047 0.598658
vn 0.548838 0.705635 0.448169
vn 0.548838 0.705635 0.448169
vn 0.548838 0.705635 0.448169
vn 0.548838 0.705635 0.448169
vn -0.603105 0.705496 -0.372210
vn -0.603105 0.705496 -0.372210
vn -0.603105 0.705496 -0.372210
vn -0.603105 0.705496 -0.372210
vn -0.548840 -0.705635 -0.448168
vn -0.548840 -0.705635 -0.448168
vn -0.548840 -0.705635 -0.448168
vn -0.548840 -0.705635 -0.448168
vn 0.603106 -0.705495 0.372209
vn 0.603106 -0.705495 0.372209
vn 0.603106 -0.705495 0.372209
vn 0.603106 -0.705495 0.372209
vn -0.578827 -0.066008 0.812774
vn -0.578827 -0.066008 0.812774
vn -0.578827 -0.066008 0.812774
vn -0.578827 -0.066008 0.812774
vn 0.578824 0.065731 -0.812799
vn 0.578824 0.065731 -0.812799
vn 0.578824 0.065731 -0.812799
vn 0.578824 0.065731 -0.812799
vn -0.549362 0.705634 0.447529
vn -0.549362 0.705634 0.447529
vn -0.549362 0.705634 0.447529
vn -0.549362 0.705634 0.447529
vn 0.603537 0.705497 -0.371506
vn 0.603537 0.705497 -0.371506
vn 0.603537 0.705497 -0.371506
vn 0.603537 0.705497 -0.371506
vn 0.549362 -0.705635 -0.447527
vn 0.549362 -0.705635 -0.447527
vn 0.549362 -0.705635 -0.447527
vn 0.549362 -0.705635 -0.447527
vn -0.603539 -0.705495 0.371506
vn -0.603539 -0.705495 0.371506
vn -0.603539 -0.705495 0.371506
vn -0.603539 -0.705495 0.371506
vn 0.577880 -0.066008 0.813448
vn 0.577880 -0.066008 0.813448
vn 0.577880 -0.066008 0.813448
vn 0.577880 -0.066008 0.813448
vn -0.577867 0.065725 -0.813480
vn -0.577867 0.065725 -0.813480
vn -0.577867 0.065725 -0.813480
vn -0.577867 0.065725 -0.813480
vn 0.707090 0.706414 0.031650
vn 0.707090 0.706414 0.031650
vn 0.707090 0.706414 0.031650
vn 0.707090 0.706414 0.031650
vn -0.707127 0.706414 0.030825
vn -0.707127 0.706414 0.030825
vn -0.707127 0.706414 0.030825
vn -0.707127 0.706414 0.030825
vn -0.707087 -0.706418 -0.031650
vn -0.707087 -0.706418 -0.031650
vn -0.707087 -0.706418 -0.031650
vn -0.707087 -0.706418 -0.031650
vn 0.707124 -0.706418 -0.030825
vn 0.707124 -0.706418 -0.030825
vn 0.707124 -0.706418 -0.030825
vn 0.707124 -0.706418 -0.030825
vn -0.000583 -0.044169 0.999024
vn -0.000583 -0.044169 0.999024
vn -0.000583 -0.044169 0.999024
vn -0.000583 -0.044169 0.999024
vn 0.000582 0.043816 -0.999040
vn 0.000582 0.043816 -0.999040
vn 0.000582 0.043816 -0.999040
vn 0.000582 0.043816 -0.999040
f 1/1/1 5/2/2 2/4/3
f 2/4/3 5/2/2 6/3/4
f 2/5/5 6/6/6 3/8/7
f 3/8/7 6/6/6 7/7/8
f 3/8/9 7/7/10 4/10/11
f 4/10/11 7/7/10 8/9/12
f 4/11/13 8/12/14 1/14/15
f 1/14/15 8/12/14 5/13/16
f 3/8/17 4/15/18 2/5/19
f 2/5/19 4/15/18 1/16/20
f 6/18/21 5/13/22 7/17/23
f 7/17/23 5/13/22 8/12/24
f 9/19/25 12/20/26 10/22/27
f 10/22/27 12/20/26 11/21/28
f 12/23/29 14/24/30 11/26/31
f 11/26/31 14/24/30 13/25/32
f 14/24/33 16/27/34 13/25/35
f 13/25/35 16/27/34 15/28/36
f 16/29/37 9/30/38 15/32/39
f 15/32/39 9/30/38 10/31/40
f 14/33/41 12/20/42 16/34/43
f 16/34/43 12/20/42 9/19/44
f 15/35/45 10/36/46 13/25/47
f 13/25/47 10/36/46 11/26/48
f 17/37/49 21/38/50 18/40/51
f 18/40/51 21/38/50 22/39/52
f 18/41/53 22/42/54 19/44/55
f 19/44/55 22/42/54 23/43/56
f 19/44/57 23/43/58 20/46/59
f 20/46/59 23/43/58 24/45/60
f 20/47/61 24/48/62 17/50/63
f 17/50/63 24/48/62 21/49/64
f 19/44/65 20/51/66 18/41/67
f 18/41/67 20/51/66 17/52/68
f 22/39/69 21/38/70 23/53/71
f 23/53/71 21/38/70 24/54/72
v 1.333179 -2.500955 3.803298
v 1.296657 -2.458207 3.780711
v 1.263391 -2.500999 3.753615
v 1.299913 -2.543686 3.776081
v 7.278612 -1.822862 -4.545163
v 7.242060 -1.780188 -4.567513
v 7.208916 -1.822966 -4.594739
v 7.245347 -1.865762 -4.572145
v -1.342915 -2.500955 3.801711
v -7.278552 -1.822862 -4.553708
v -7.242121 -1.780188 -4.576058
v -1.306362 -2.458207 3.779246
v -7.208734 -1.822966 -4.603284
v -1.273066 -2.500999 3.752028
v -7.245408 -1.865762 -4.580689
v -1.309649 -2.543686 3.774616
v 0.054853 2.011457 5.594522
v 0.017361 2.048892 5.596102
v -0.020130 2.011457 5.594461
v 0.017363 1.974022 5.592820
v 0.061377 2.506373 -5.594462
v 0.023886 2.543796 -5.592699
v -0.013605 2.506373 -5.594462
v 0.023888 2.468707 -5.596226
vt 0.114003 0.970501
vt 0.114003 0.759764
vt 0.115247 0.759764
vt 0.115247 0.970501
vt 0.400852 0.987945
vt 0.400852 0.777208
vt 0.402095 0.777208
vt 0.402095 0.987945
vt 0.403338 0.777209
vt 0.403338 0.987945
vt 0.133175 0.747878
vt 0.133175 0.958615
vt 0.131931 0.958615
vt 0.131932 0.747878
vt 0.402095 0.989189
vt 0.400852 0.989189
vt 0.133175 0.959858
vt 0.131932 0.959858
vt 0.124211 0.965469
vt 0.122967 0.965469
vt 0.122967 0.754732
vt 0.124211 0.754732
vt 0.965585 0.735623
vt 0.966828 0.735623
vt 0.966828 0.946360
vt 0.965585 0.946360
vt 0.968071 0.735623
vt 0.968071 0.946360
vt 0.140895 0.776444
vt 0.142139 0.776444
vt 0.142139 0.987181
vt 0.140895 0.987180
vt 0.122967 0.966712
vt 0.124211 0.966712
vt 0.966828 0.947603
vt 0.965585 0.947604
vt 0.998047 0.367785
vt 0.998047 0.597570
vt 0.996959 0.597570
vt 0.996959 0.367785
vt 0.974549 0.965408
vt 0.974549 0.735623
vt 0.975637 0.735623
vt 0.975637 0.965408
vt 0.976724 0.735624
vt 0.976724 0.965408
vt 0.998047 0.602174
vt 0.998047 0.831958
vt 0.996959 0.831958
vt 0.996959 0.602174
vt 0.975637 0.966496
vt 0.974549 0.966496
vt 0.996959 0.598658
vt 0.998047 0.598658
vn 0.548838 0.705635 0.448169
vn 0.548838 0.705635 0.448169
vn 0.548838 0.705635 0.448169
vn 0.548838 0.705635 0.448169
vn -0.603105 0.705496 -0.372210
vn -0.603105 0.705496 -0.372210
vn -0.603105 0.705496 -0.372210
vn -0.603105 0.705496 -0.372210
vn -0.548840 -0.705635 -0.448168
vn -0.548840 -0.705635 -0.448168
vn -0.548840 -0.705635 -0.448168
vn -0.548840 -0.705635 -0.448168
vn 0.603106 -0.705495 0.372209
vn 0.603106 -0.705495 0.372209
vn 0.603106 -0.705495 0.372209
vn 0.603106 -0.705495 0.372209
vn -0.578827 -0.066008 0.812774
vn -0.578827 -0.066008 0.812774
vn -0.578827 -0.066008 0.812774
vn -0.578827 -0.066008 0.812774
vn 0.578824 0.065731 -0.812799
vn 0.578824 0.065731 -0.812799
vn 0.578824 0.065731 -0.812799
vn 0.578824 0.065731 -0.812799
vn -0.549362 0.705634 0.447529
vn -0.549362 0.705634 0.447529
vn -0.549362 0.705634 0.447529
vn -0.549362 0.705634 0.447529
vn 0.603537 0.705497 -0.371506
vn 0.603537 0.705497 -0.371506
vn 0.603537 0.705497 -0.371506
vn 0.603537 0.705497 -0.371506
vn 0.549362 -0.705635 -0.447527
vn 0.549362 -0.705635 -0.447527
vn 0.549362 -0.705635 -0.447527
vn 0.549362 -0.705635 -0.447527
vn -0.603539 -0.705495 0.371506
vn -0.603539 -0.705495 0.371506
vn -0.603539 -0.705495 0.371506
vn -0.603539 -0.705495 0.371506
vn 0.577880 -0.066008 0.813448
vn 0.577880 -0.066008 0.813448
vn 0.577880 -0.066008 0.813448
vn 0.577880 -0.066008 0.813448
vn -0.577867 0.065725 -0.813480
vn -0.577867 0.065725 -0.813480
vn -0.577867 0.065725 -0.813480
vn -0.577867 0.065725 -0.813480
vn 0.707090 0.706414 0.031650
vn 0.707090 0.706414 0.031650
vn 0.707090 0.706414 0.031650
vn 0.707090 0.706414 0.031650
vn -0.707127 0.706414 0.030825
vn -0.707127 0.706414 0.030825
vn -0.707127 0.706414 0.030825
vn -0.707127 0.706414 0.030825
vn -0.707087 -0.706418 -0.031650
vn -0.707087 -0.706418 -0.031650
vn -0.707087 -0.706418 -0.031650
vn -0.707087 -0.706418 -0.031650
vn 0.707124 -0.706418 -0.030825
vn 0.707124 -0.706418 -0.030825
vn 0.707124 -0.706418 -0.030825
vn 0.707124 -0.706418 -0.030825
vn -0.000583 -0.044169 0.999024
vn -0.000583 -0.044169 0.999024
vn -0.000583 -0.044169 0.999024
vn -0.000583 -0.044169 0.999024
vn 0.000582 0.043816 -0.999040
vn 0.000582 0.043816 -0.999040
vn 0.000582 0.043816 -0.999040
vn 0.000582 0.043816 -0.999040
f 25/55/73 29/56/74 26/58/75
f 26/58/75 29/56/74 30/57/76
f 26/59/77 30/60/78 27/62/79
f 27/62/79 30/60/78 31/61/80
f 27/62/81 31/61/82 28/64/83
f 28/64/83 31/61/82 32/63/84
f 28/65/85 32/66/86 25/68/87
f 25/68/87 32/66/86 29/67/88
f 27/62/89 28/69/90 26/59/91
f 26/59/91 28/69/90 25/70/92
f 30/72/93 29/67/94 31/71/95
f 31/71/95 29/67/94 32/66/96
f 33/73/97 36/74/98 34/76/99
f 34/76/99 36/74/98 35/75/100
f 36/77/101 38/78/102 35/80/103
f 35/80/103 38/78/102 37/79/104
f 38/78/105 40/81/106 37/79/107
f 37/79/107 40/81/106 39/82/108
f 40/83/109 33/84/110 39/86/111
f 39/86/111 33/84/110 34/85/112
f 38/87/113 36/74/114 40/88/115
f 40/88/115 36/74/114 33/73/116
f 39/89/117 34/90/118 37/79/119
f 37/79/119 34/90/118 35/80/120
f 41/91/121 45/92/122 42/94/123
f 42/94/123 45/92/122 46/93/124
f 42/95/125 46/96/126 43/98/127
f 43/98/127 46/96/126 47/97/128
f 43/98/129 47/97/130 44/100/131
f 44/100/131 47/97/130 48/99/132
f 44/101/133 48/102/134 41/104/135
f 41/104/135 48/102/134 45/103/136
f 43/98/137 44/105/138 42/95/139
f 42/95/139 44/105/138 41/106/140
f 46/93/141 45/92/142 47/107/143
f 47/107/143 45/92/142 48/108/144
